<svg width="196" height="43" viewBox="0 0 196 43" fill="none" xmlns="http://www.w3.org/2000/svg">
<g id="Group 1">
<path id="Star 1" d="M22.5012 0.0869141L27.8825 14.1891L43.2328 14.8463L31.2084 24.2192L35.314 38.7276L22.5012 30.4182L9.68831 38.7276L13.7939 24.2192L1.76953 14.8463L17.1198 14.1891L22.5012 0.0869141Z" fill="#F4F1E7"/>
<path id="Star 2" d="M72.8338 0.0869141L78.2152 14.1891L93.5654 14.8463L81.5411 24.2192L85.6466 38.7276L72.8338 30.4182L60.0209 38.7276L64.1265 24.2192L52.1022 14.8463L67.4524 14.1891L72.8338 0.0869141Z" fill="#F4F1E7"/>
<path id="Star 3" d="M123.166 0.0869141L128.548 14.1891L143.898 14.8463L131.874 24.2192L135.979 38.7276L123.166 30.4182L110.353 38.7276L114.459 24.2192L102.435 14.8463L117.785 14.1891L123.166 0.0869141Z" fill="#F4F1E7"/>
<path id="Star 4" d="M173.499 0.0869141L178.88 14.1891L194.231 14.8463L182.206 24.2192L186.312 38.7276L173.499 30.4182L160.686 38.7276L164.792 24.2192L152.767 14.8463L168.118 14.1891L173.499 0.0869141Z" fill="#F4F1E7"/>
</g>
</svg>
